<?xml version="1.0" encoding="UTF-8"?>
<svg width="12px" height="15px" viewBox="0 0 12 15" version="1.1" xmlns="http://www.w3.org/2000/svg" xmlns:xlink="http://www.w3.org/1999/xlink">
    <title>4AB95E52-91BB-43D3-B355-AC6E8002C0E0</title>
    <defs>
        <linearGradient x1="50%" y1="0%" x2="50%" y2="100%" id="linearGradient-1">
            <stop stop-color="#FAD961" offset="0%"></stop>
            <stop stop-color="#F76B1C" offset="100%"></stop>
        </linearGradient>
    </defs>
    <g id="MVP-Flow---Max-update" stroke="none" stroke-width="1" fill="none" fill-rule="evenodd">
        <g id="1.Game-Table-(Max)-" transform="translate(-960.000000, -930.000000)" fill="url(#linearGradient-1)" fill-rule="nonzero">
            <g id="Group-2" transform="translate(175.000000, 159.999666)">
                <g id="Group-9" transform="translate(0.000000, 644.452052)">
                    <g id="Asset-4-Copy-7" transform="translate(785.897426, 125.930357)">
                        <path d="M3.21395976,5.4565201 C3.0028729,5.83007412 2.96781058,6.278363 3.11823604,6.6803945 C3.23165876,7.00094656 3.48208697,7.25372726 3.80083701,7.36940772 C4.11958704,7.48508819 4.47319699,7.45152446 4.76468406,7.27792187 C5.46155276,6.8936599 5.73532261,6.31726693 5.5936515,5.50455284 C5.49984225,4.96082214 5.36774352,4.42285537 5.28159217,3.87912467 C4.99293706,2.05249789 6.22931575,0.335137246 8.04800775,0.036504888 C8.22796835,0 8.40792895,0.0134491692 8.6510672,0 C8.553429,0.119121213 8.49599477,0.192130989 8.44238949,0.253612906 C7.86804715,0.983710665 7.44877725,1.79066082 7.4296325,2.75131577 C7.41460055,3.30029868 7.56906879,3.84051901 7.8718761,4.29797023 C8.22796835,4.82633045 8.61086324,5.34700543 8.99375813,5.86383779 C9.5202386,6.57664376 10.0294888,7.30866283 10.2151928,8.18670145 C10.6402062,10.2059982 10.3740942,12.0600622 8.75061987,13.5144938 C8.04260541,14.1379725 7.15290396,14.5153398 6.21394122,14.5904273 C5.03462496,14.7076272 4.22863122,13.7316018 4.57515109,12.598029 C4.69609885,12.2429901 4.8446069,11.8980179 5.01930917,11.5662856 C5.12843421,11.3472562 5.27776322,11.3184366 5.49409883,11.4433217 C5.76021078,11.5970265 6.01866483,11.7622592 6.2828623,11.9140426 C6.54705978,12.0658261 6.73084933,11.940941 6.72702038,11.6565871 C6.70787563,10.5729683 6.68362562,9.49063043 6.65427035,8.4095734 C6.65427035,8.08102941 6.4628229,7.98112129 6.18522411,8.12714085 C5.23755925,8.60938963 4.2898944,9.08779579 3.34797297,9.58157244 C3.23916255,9.64016593 3.16096189,9.74317075 3.13355183,9.86400499 C3.13355183,9.95046393 3.2407624,10.0734278 3.32499928,10.1349097 C3.59685465,10.3270407 3.88402582,10.4826668 4.16736804,10.6459781 C4.24701434,10.6783122 4.30758041,10.7453871 4.33182309,10.8281065 C4.35606576,10.9108259 4.34132919,11.0001277 4.29180887,11.0705876 C4.02316758,11.6410538 3.63067423,12.143926 3.1431242,12.542311 C2.51378685,13.0439453 1.60393123,12.9664494 1.0678339,12.3655505 C-0.372862749,10.8515788 -0.353356836,8.4625097 1.11186681,6.9724336 C1.72230543,6.35170484 2.43304377,5.83915954 3.21395976,5.4565201 Z" id="Path"></path>
                    </g>
                </g>
            </g>
        </g>
    </g>
</svg>